<svg width="216" height="216" viewBox="0 0 216 216" fill="none" xmlns="http://www.w3.org/2000/svg">
<circle cx="108" cy="108" r="107.5" fill="white" style="mix-blend-mode:color"/>
<circle cx="108" cy="108" r="107.5" stroke="black"/>
<path d="M40.536 127.992C38.256 127.992 36.3 127.44 34.668 126.336L35.892 124.104C37.188 125.064 38.748 125.544 40.572 125.544C41.988 125.544 43.164 125.148 44.1 124.356C45.036 123.588 45.66 122.496 45.972 121.08L49.284 105.456H42.12L42.624 103.08H52.38L48.42 121.656C47.988 123.72 47.1 125.292 45.756 126.372C44.412 127.452 42.672 127.992 40.536 127.992ZM52.02 98.976C51.348 98.976 50.784 98.76 50.328 98.328C49.872 97.896 49.644 97.356 49.644 96.708C49.644 95.94 49.896 95.304 50.4 94.8C50.904 94.272 51.516 94.008 52.236 94.008C52.932 94.008 53.496 94.224 53.928 94.656C54.384 95.088 54.612 95.628 54.612 96.276C54.612 97.02 54.36 97.656 53.856 98.184C53.352 98.712 52.74 98.976 52.02 98.976ZM64.2628 120.432C62.4388 120.432 61.0108 120.036 59.9788 119.244C58.9708 118.428 58.4668 117.312 58.4668 115.896C58.4668 112.056 60.8188 110.136 65.5228 110.136H72.3988L72.5428 109.38C72.5908 109.068 72.6388 108.78 72.6868 108.516C72.7348 108.252 72.7588 108 72.7588 107.76C72.7588 106.8 72.4348 106.116 71.7868 105.708C71.1628 105.3 70.1188 105.096 68.6548 105.096C66.5188 105.096 64.4428 105.552 62.4268 106.464L61.6348 104.232C63.9628 103.176 66.4228 102.648 69.0148 102.648C73.2628 102.648 75.3868 104.148 75.3868 107.148C75.3868 107.46 75.3628 107.784 75.3148 108.12C75.2908 108.432 75.2428 108.768 75.1708 109.128L72.8668 120H70.9228L70.9948 118.272C69.8908 119.016 68.7868 119.568 67.6828 119.928C66.5788 120.264 65.4388 120.432 64.2628 120.432ZM64.8028 117.984C65.9788 117.984 67.0948 117.816 68.1508 117.48C69.2068 117.12 70.2028 116.604 71.1388 115.932L71.8948 112.44H65.1988C63.8788 112.44 62.8708 112.716 62.1748 113.268C61.4788 113.796 61.1308 114.588 61.1308 115.644C61.1308 117.204 62.3548 117.984 64.8028 117.984ZM87.7376 120.432C85.3616 120.432 83.3096 119.628 81.5816 118.02L80.8256 120H78.8816L84.3176 94.44H86.9096L84.7496 104.52C86.6936 103.272 88.6016 102.648 90.4736 102.648C92.4656 102.648 94.0136 103.224 95.1176 104.376C96.2216 105.504 96.7736 107.1 96.7736 109.164C96.7736 110.748 96.5456 112.224 96.0896 113.592C95.6336 114.96 94.9976 116.16 94.1816 117.192C93.3656 118.2 92.4056 118.992 91.3016 119.568C90.1976 120.144 89.0096 120.432 87.7376 120.432ZM87.3416 117.984C88.6376 117.984 89.7896 117.612 90.7976 116.868C91.8296 116.1 92.6456 115.068 93.2456 113.772C93.8456 112.452 94.1456 110.988 94.1456 109.38C94.1456 108.012 93.7856 106.956 93.0656 106.212C92.3696 105.468 91.3496 105.096 90.0056 105.096C89.0696 105.096 88.0856 105.276 87.0536 105.636C86.0456 105.972 85.0976 106.452 84.2096 107.076L82.3016 116.04C82.9736 116.64 83.7536 117.12 84.6416 117.48C85.5536 117.816 86.4536 117.984 87.3416 117.984ZM99.8004 120L100.34 117.48H106.496L110.384 99.12H104.228L104.768 96.6H119.744L119.204 99.12H113.048L109.16 117.48H115.316L114.776 120H99.8004ZM131.663 120.432C128.063 120.432 126.263 118.956 126.263 116.004C126.263 115.596 126.287 115.212 126.335 114.852C126.383 114.468 126.431 114.156 126.479 113.916L128.279 105.456H122.699L123.203 103.08H128.783L129.935 97.608L132.815 96.168L131.375 103.08H138.575L138.071 105.456H130.871L129.107 113.772C129.059 114.012 129.011 114.288 128.963 114.6C128.915 114.888 128.891 115.188 128.891 115.5C128.891 116.364 129.131 117 129.611 117.408C130.091 117.792 130.847 117.984 131.879 117.984C133.343 117.984 134.831 117.624 136.343 116.904L136.919 119.244C136.079 119.628 135.227 119.916 134.363 120.108C133.523 120.324 132.623 120.432 131.663 120.432ZM150.458 120.432C147.89 120.432 145.874 119.82 144.41 118.596C142.97 117.348 142.25 115.632 142.25 113.448C142.25 111.408 142.694 109.572 143.582 107.94C144.47 106.308 145.682 105.024 147.218 104.088C148.754 103.128 150.482 102.648 152.402 102.648C154.682 102.648 156.446 103.224 157.694 104.376C158.966 105.504 159.602 107.064 159.602 109.056C159.602 109.584 159.554 110.16 159.458 110.784C159.362 111.384 159.242 111.936 159.098 112.44H144.914V113.34C144.914 116.436 146.846 117.984 150.71 117.984C151.694 117.984 152.654 117.852 153.59 117.588C154.55 117.324 155.546 116.916 156.578 116.364L157.514 118.524C155.21 119.796 152.858 120.432 150.458 120.432ZM145.454 110.136H157.046V109.38C157.046 107.988 156.638 106.932 155.822 106.212C155.03 105.468 153.854 105.096 152.294 105.096C150.734 105.096 149.354 105.54 148.154 106.428C146.954 107.316 146.054 108.552 145.454 110.136ZM161.441 120L165.041 103.08H166.805L166.733 104.412C167.453 103.812 168.173 103.368 168.893 103.08C169.637 102.792 170.345 102.648 171.017 102.648C171.785 102.648 172.421 102.804 172.925 103.116C173.429 103.428 173.777 103.86 173.969 104.412C174.737 103.836 175.481 103.404 176.201 103.116C176.921 102.804 177.629 102.648 178.325 102.648C179.309 102.648 180.077 102.924 180.629 103.476C181.205 104.004 181.493 104.736 181.493 105.672C181.493 105.936 181.445 106.308 181.349 106.788L178.541 120H176.057L178.793 107.076C178.841 106.884 178.865 106.716 178.865 106.572C178.889 106.428 178.901 106.284 178.901 106.14C178.901 105.348 178.421 104.952 177.461 104.952C176.333 104.952 175.217 105.444 174.113 106.428L171.233 120H168.749L171.485 107.076C171.533 106.884 171.557 106.716 171.557 106.572C171.581 106.428 171.593 106.284 171.593 106.14C171.593 105.348 171.113 104.952 170.153 104.952C169.625 104.952 169.073 105.072 168.497 105.312C167.921 105.552 167.357 105.912 166.805 106.392L163.925 120H161.441Z" fill="black"/>
</svg>
